<mxfile host="65bd71144e">
    <diagram id="OfeZRlVBRkYjE4DI2M1j" name="第 1 页">
        <mxGraphModel dx="790" dy="1689" grid="1" gridSize="10" guides="1" tooltips="1" connect="1" arrows="1" fold="1" page="1" pageScale="1" pageWidth="827" pageHeight="1169" math="0" shadow="0">
            <root>
                <mxCell id="0"/>
                <mxCell id="1" parent="0"/>
                <mxCell id="2" value="" style="whiteSpace=wrap;html=1;aspect=fixed;" vertex="1" parent="1">
                    <mxGeometry x="20" y="60" width="420" height="420" as="geometry"/>
                </mxCell>
                <mxCell id="3" value="Execution Context Stack" style="text;html=1;strokeColor=none;fillColor=none;align=center;verticalAlign=middle;whiteSpace=wrap;rounded=0;" vertex="1" parent="1">
                    <mxGeometry x="70" y="10" width="280" height="30" as="geometry"/>
                </mxCell>
                <mxCell id="4" value="VO(variable object):GO" style="swimlane;fontStyle=0;childLayout=stackLayout;horizontal=1;startSize=30;horizontalStack=0;resizeParent=1;resizeParentMax=0;resizeLast=0;collapsible=1;marginBottom=0;" vertex="1" parent="1">
                    <mxGeometry x="40" y="390" width="370" height="60" as="geometry"/>
                </mxCell>
                <mxCell id="8" value="执行代码" style="text;html=1;strokeColor=none;fillColor=none;align=center;verticalAlign=middle;whiteSpace=wrap;rounded=0;" vertex="1" parent="4">
                    <mxGeometry y="30" width="370" height="30" as="geometry"/>
                </mxCell>
                <mxCell id="9" value="Global Execution Context" style="text;html=1;strokeColor=none;fillColor=none;align=center;verticalAlign=middle;whiteSpace=wrap;rounded=0;" vertex="1" parent="1">
                    <mxGeometry x="105" y="350" width="240" height="30" as="geometry"/>
                </mxCell>
                <mxCell id="10" value="" style="whiteSpace=wrap;html=1;aspect=fixed;" vertex="1" parent="1">
                    <mxGeometry x="480" y="320" width="160" height="160" as="geometry"/>
                </mxCell>
                <mxCell id="12" style="edgeStyle=none;html=1;exitX=1;exitY=0.5;exitDx=0;exitDy=0;" edge="1" parent="1" source="11">
                    <mxGeometry relative="1" as="geometry">
                        <mxPoint x="580" y="295" as="targetPoint"/>
                    </mxGeometry>
                </mxCell>
                <mxCell id="11" value="Global Object" style="text;html=1;strokeColor=none;fillColor=none;align=center;verticalAlign=middle;whiteSpace=wrap;rounded=0;" vertex="1" parent="1">
                    <mxGeometry x="480" y="280" width="130" height="30" as="geometry"/>
                </mxCell>
                <mxCell id="13" value="{&lt;br&gt;message:undefined,&lt;br&gt;foo:0xa00,&lt;br&gt;bar:0xb00&lt;br&gt;}" style="text;html=1;strokeColor=none;fillColor=none;align=center;verticalAlign=middle;whiteSpace=wrap;rounded=0;" vertex="1" parent="1">
                    <mxGeometry x="510" y="360" width="100" height="80" as="geometry"/>
                </mxCell>
                <mxCell id="14" value="" style="whiteSpace=wrap;html=1;aspect=fixed;" vertex="1" parent="1">
                    <mxGeometry x="480" y="120" width="160" height="160" as="geometry"/>
                </mxCell>
                <mxCell id="15" value="foo:0xa00" style="text;html=1;strokeColor=none;fillColor=none;align=center;verticalAlign=middle;whiteSpace=wrap;rounded=0;" vertex="1" parent="1">
                    <mxGeometry x="530" y="80" width="60" height="30" as="geometry"/>
                </mxCell>
                <mxCell id="16" value="[[scope]]:parent scope&lt;br&gt;代码块" style="text;html=1;strokeColor=none;fillColor=none;align=center;verticalAlign=middle;whiteSpace=wrap;rounded=0;" vertex="1" parent="1">
                    <mxGeometry x="480" y="160" width="150" height="30" as="geometry"/>
                </mxCell>
                <mxCell id="17" value="&lt;span&gt;[[scope]]:parent scope&lt;/span&gt;&lt;br&gt;&lt;span&gt;代码块&lt;/span&gt;" style="whiteSpace=wrap;html=1;aspect=fixed;" vertex="1" parent="1">
                    <mxGeometry x="475" y="-90" width="165" height="165" as="geometry"/>
                </mxCell>
                <mxCell id="18" value="bar:0xb00" style="text;html=1;strokeColor=none;fillColor=none;align=center;verticalAlign=middle;whiteSpace=wrap;rounded=0;" vertex="1" parent="1">
                    <mxGeometry x="480" y="-140" width="140" height="30" as="geometry"/>
                </mxCell>
                <mxCell id="19" value="VO(variable object):AO" style="swimlane;fontStyle=0;childLayout=stackLayout;horizontal=1;startSize=30;horizontalStack=0;resizeParent=1;resizeParentMax=0;resizeLast=0;collapsible=1;marginBottom=0;" vertex="1" parent="1">
                    <mxGeometry x="44" y="290" width="370" height="60" as="geometry"/>
                </mxCell>
                <mxCell id="20" value="执行代码" style="text;strokeColor=none;fillColor=none;align=left;verticalAlign=middle;spacingLeft=4;spacingRight=4;overflow=hidden;points=[[0,0.5],[1,0.5]];portConstraint=eastwest;rotatable=0;" vertex="1" parent="19">
                    <mxGeometry y="30" width="370" height="30" as="geometry"/>
                </mxCell>
                <mxCell id="23" value="{&lt;br&gt;&lt;br&gt;}" style="whiteSpace=wrap;html=1;aspect=fixed;" vertex="1" parent="1">
                    <mxGeometry x="740" y="120" width="160" height="160" as="geometry"/>
                </mxCell>
                <mxCell id="24" value="" style="endArrow=classic;html=1;entryX=-0.031;entryY=0.556;entryDx=0;entryDy=0;entryPerimeter=0;" edge="1" parent="1" target="23">
                    <mxGeometry width="50" height="50" relative="1" as="geometry">
                        <mxPoint x="640" y="270" as="sourcePoint"/>
                        <mxPoint x="690" y="220" as="targetPoint"/>
                    </mxGeometry>
                </mxCell>
                <mxCell id="25" value="AO" style="text;html=1;align=center;verticalAlign=middle;resizable=0;points=[];autosize=1;strokeColor=none;fillColor=none;" vertex="1" parent="1">
                    <mxGeometry x="795" y="90" width="30" height="20" as="geometry"/>
                </mxCell>
                <mxCell id="26" value="{&lt;br&gt;message:Hello Bar&lt;br&gt;}" style="whiteSpace=wrap;html=1;" vertex="1" parent="1">
                    <mxGeometry x="740" y="-90" width="160" height="170" as="geometry"/>
                </mxCell>
                <mxCell id="27" value="AO" style="text;html=1;align=center;verticalAlign=middle;resizable=0;points=[];autosize=1;strokeColor=none;fillColor=none;" vertex="1" parent="1">
                    <mxGeometry x="785" y="-130" width="30" height="20" as="geometry"/>
                </mxCell>
                <mxCell id="29" value="" style="endArrow=classic;html=1;entryX=0;entryY=0.5;entryDx=0;entryDy=0;" edge="1" parent="1" target="26">
                    <mxGeometry width="50" height="50" relative="1" as="geometry">
                        <mxPoint x="640" y="60" as="sourcePoint"/>
                        <mxPoint x="690" y="10" as="targetPoint"/>
                    </mxGeometry>
                </mxCell>
                <mxCell id="30" value="Function Execution Context" style="text;html=1;strokeColor=none;fillColor=none;align=center;verticalAlign=middle;whiteSpace=wrap;rounded=0;" vertex="1" parent="1">
                    <mxGeometry x="100" y="250" width="250" height="30" as="geometry"/>
                </mxCell>
                <mxCell id="31" value="VO(variable object):AO" style="swimlane;fontStyle=0;childLayout=stackLayout;horizontal=1;startSize=30;horizontalStack=0;resizeParent=1;resizeParentMax=0;resizeLast=0;collapsible=1;marginBottom=0;" vertex="1" parent="1">
                    <mxGeometry x="44" y="170" width="366" height="60" as="geometry"/>
                </mxCell>
                <mxCell id="37" value="执行代码" style="text;html=1;strokeColor=none;fillColor=none;align=center;verticalAlign=middle;whiteSpace=wrap;rounded=0;" vertex="1" parent="31">
                    <mxGeometry y="30" width="366" height="30" as="geometry"/>
                </mxCell>
                <mxCell id="36" value="Function Execution Context" style="text;html=1;strokeColor=none;fillColor=none;align=center;verticalAlign=middle;whiteSpace=wrap;rounded=0;" vertex="1" parent="1">
                    <mxGeometry x="44" y="130" width="366" height="30" as="geometry"/>
                </mxCell>
            </root>
        </mxGraphModel>
    </diagram>
</mxfile>